<?xml version="1.0" encoding="UTF-8"?>
<svg id="Layer_2" data-name="Layer 2" xmlns="http://www.w3.org/2000/svg" viewBox="0 0 804 281.04">
  <defs>
    <style>
      .cls-1 {
        fill: none;
        stroke: #231f20;
        stroke-miterlimit: 10;
        stroke-width: 5px;
      }
    </style>
  </defs>
  <g id="Layer_1-2" data-name="Layer 1">
    <path class="cls-1" d="M35.45.09c1.26,35.46,5.68,71.09,5.1,106.52-1.45,15.37-21.47,18.64-33.12,15.17-8.31-3.21-4.17-13.03-1.44-19.12,8.48-19,18.44-37.37,29.87-54.79,4.95-7.89,12.49-15.73,22.59-13.48,13.85,3.54,26.74,12.6,41.55,12.29,10.16.18,24.01-3.38,27.49-14.08,2.96-16.42-27.77-24.95-37.55-13.65-10.31,12.27-9.25,32.5-12.55,47.93-1.13,15.32-9.78,35.93,2.11,48.5,14.2,11.55,34.13,5.34,49.88-.54,8.77-3.88,22.33-9.63,22.06-20.83-1.7-11.54-19.05-9.86-23.42-.65-5.88,9.63-1.52,27.23,8.26,32.46,6.45,3.49,14.07.75,20.04-2.79,15.83-9.73,29.34-23.03,40.33-37.87,2.2-2.7,6.33-9.53,9.88-6.6,6.32,13.63,3.44,35.99-4.94,48.7-3.29,9.77-53.81,45.6-49.83,19.27,5.78-21.39,19.75-47.01,40.04-55.24,16.05-7.04,35.52,3.94,50.96-4.33,6.36-3.08,8.47-13.4.93-15.37-15.12,1.53-2.67,33.82.89,42.19,6.75,15.75,12.01,11.85,16.77-2.07,6.24-16.36,13.19-32.49,20.92-48.21,7.29-15.1,8.7-7.15,8.63,4.44.13,29.4-.34,60.35-2.86,89.2-.02-.35.05-1.87.23-4.27,2.12-29.86,11.73-59.35,28-84.64,10.56-17.53,24.1-21.86,29.12,1.78,3.18,13.45,4.84,27.28,5.07,41.09-.3,11.89,2.96,20.21,16.29,14.48,25.28-10.87,49.11-32.77,55.69-59.95,1.3-11.63-11.79-13.26-20.15-7.99-29.97,16.2-1.88,80.95,29.93,58.17,12.39-8.28,16.05-27.47,21.15-39.34,1.31-1.58.82,2.96.85,3.87-1.18,14.12-3.11,28.64-4.59,42.79-2.05,17.35-.63,8.77,4.81-1.55,8.38-15.48,27.21-29.56,45.41-24.04,13.47,4.5,12.4,20.94,7.59,31.68-3.29,6.28-14.7,39.65-22.86,34.94-8.89-7.99-3.67-24.25,3.95-31.75,10.33-9.9,29.68-17.53,43.83-11.97,8.56,4.59,7.47,16.03,8.59,24.42,1.04,10.53,1.77,29.47,14.91,30.17,7.76-1.01,14-8.09,20.79-11.81,13.57-9.29,32.55-12.08,40.96-27.09,7.62-15,9.47-32.41,11.53-48.91,1.26-13.69.56-1.88.43,3.47-.45,12.67-.87,25.37-1.35,38.05.35,14.5-5.8,32.55-22.2,18.63-19.81-20.41-30.14-69.76-.84-86.47,17.7-12.36,116.57-19.85,122.12,5.16,2.45,10.35-7.29,19.73-14.02,27.1-8.3,8.8-16.76,17.44-25.36,25.94-29.47,28.44-62.02,62.28-105.55,63.23-13.01.19-26.28-2.77-37.26-9.67-3.01-1.68-8.32-6.15-7.37-7.13,1.07-1.88,9.16,1.17,12.11,2.1,67.8,23.38,135.34,47.8,203.36,70.61,8.81,2.19,19.85,7.33,28.39,4.61,5.75-2.67,4.97-10.75,4.42-16.39-2.3-20.44-4.38-40.94-6.85-61.38-1.9-20.22-12.07-28.22-32.07-24.11-11.84,2.77-52.95,10.18-54.85,23.87,3.7,25.52,44.06,38.02,66.29,30.92,23.11-6.64,11.85-25.3-2.98-34.88-8.63-6.61-20.35-6.87-17.65,6.59,3.22,14.28,19.84,28.69,35.57,25.63,13.22-3.37,9.72-21.41.2-27.02-14.69-7.95-9.45,12.39,9.52,16.68,6.89,2.66,19,2.59,18.31,10.73-.96,3.32-4.86,7.11-8.05,9.64-31.33,25.33-62.79,50.66-94.17,75.99"/>
  </g>
</svg>